<svg width="136" height="21" viewBox="0 0 136 21" fill="none" xmlns="http://www.w3.org/2000/svg">
<path d="M0.986582 15.5V5.31818H5.00363C5.77257 5.31818 6.42882 5.45573 6.97238 5.73082C7.51925 6.0026 7.93521 6.38873 8.22025 6.8892C8.5086 7.38636 8.65278 7.97135 8.65278 8.64418C8.65278 9.32031 8.50694 9.90199 8.21528 10.3892C7.92361 10.8731 7.50102 11.2443 6.94752 11.5028C6.39733 11.7614 5.73114 11.8906 4.94894 11.8906H2.25931V10.1605H4.60093C5.01191 10.1605 5.3533 10.1042 5.62508 9.99148C5.89686 9.87879 6.09903 9.70975 6.23161 9.48438C6.3675 9.259 6.43545 8.97893 6.43545 8.64418C6.43545 8.30611 6.3675 8.02107 6.23161 7.78906C6.09903 7.55705 5.8952 7.38139 5.6201 7.26207C5.34832 7.13944 5.00528 7.07812 4.59099 7.07812H3.13928V15.5H0.986582ZM6.48516 10.8665L9.0157 15.5H6.63928L4.16343 10.8665H6.48516ZM10.7341 15.5V5.31818H17.5949V7.09304H12.8868V9.51918H17.2419V11.294H12.8868V13.7251H17.6148V15.5H10.7341ZM21.6213 15.5H19.3145L22.8294 5.31818H25.6036L29.1135 15.5H26.8067L24.2563 7.64489H24.1767L21.6213 15.5ZM21.4771 11.4979H26.926V13.1783H21.4771V11.4979ZM34.5084 15.5H30.899V5.31818H34.5382C35.5624 5.31818 36.444 5.52202 37.1831 5.92969C37.9222 6.33404 38.4906 6.91572 38.8884 7.67472C39.2894 8.43371 39.4899 9.34186 39.4899 10.3991C39.4899 11.4598 39.2894 12.3712 38.8884 13.1335C38.4906 13.8958 37.9189 14.4808 37.1732 14.8885C36.4307 15.2962 35.5425 15.5 34.5084 15.5ZM33.0517 13.6555H34.4189C35.0553 13.6555 35.5905 13.5429 36.0247 13.3175C36.4622 13.0888 36.7903 12.7358 37.0091 12.2585C37.2312 11.7779 37.3422 11.1581 37.3422 10.3991C37.3422 9.64678 37.2312 9.03196 37.0091 8.55469C36.7903 8.07741 36.4639 7.72609 36.0297 7.50071C35.5955 7.27533 35.0602 7.16264 34.4239 7.16264H33.0517V13.6555ZM47.1998 15.5H44.8929L48.4079 5.31818H51.182L54.6919 15.5H52.3851L49.8347 7.64489H49.7552L47.1998 15.5ZM47.0556 11.4979H52.5044V13.1783H47.0556V11.4979ZM56.4774 15.5V5.31818H60.4945C61.2634 5.31818 61.9197 5.45573 62.4632 5.73082C63.0101 6.0026 63.4261 6.38873 63.7111 6.8892C63.9995 7.38636 64.1436 7.97135 64.1436 8.64418C64.1436 9.32031 63.9978 9.90199 63.7061 10.3892C63.4145 10.8731 62.9919 11.2443 62.4384 11.5028C61.8882 11.7614 61.222 11.8906 60.4398 11.8906H57.7502V10.1605H60.0918C60.5028 10.1605 60.8442 10.1042 61.1159 9.99148C61.3877 9.87879 61.5899 9.70975 61.7225 9.48438C61.8584 9.259 61.9263 8.97893 61.9263 8.64418C61.9263 8.30611 61.8584 8.02107 61.7225 7.78906C61.5899 7.55705 61.3861 7.38139 61.111 7.26207C60.8392 7.13944 60.4961 7.07812 60.0818 7.07812H58.6301V15.5H56.4774ZM61.976 10.8665L64.5066 15.5H62.1301L59.6543 10.8665H61.976ZM65.8372 7.09304V5.31818H74.1994V7.09304H71.0822V15.5H68.9543V7.09304H65.8372ZM78.2892 5.31818V15.5H76.1365V5.31818H78.2892ZM89.604 8.88281H87.4264C87.3867 8.60109 87.3055 8.35085 87.1828 8.1321C87.0602 7.91004 86.9028 7.72112 86.7105 7.56534C86.5183 7.40956 86.2962 7.29025 86.0443 7.20739C85.7958 7.12453 85.5256 7.0831 85.234 7.0831C84.707 7.0831 84.2479 7.21402 83.8568 7.47585C83.4657 7.73437 83.1625 8.11222 82.947 8.60938C82.7316 9.10322 82.6239 9.70312 82.6239 10.4091C82.6239 11.1349 82.7316 11.7448 82.947 12.2386C83.1658 12.7325 83.4707 13.1054 83.8618 13.3572C84.2529 13.6091 84.7053 13.7351 85.2191 13.7351C85.5074 13.7351 85.7742 13.697 86.0195 13.6207C86.2681 13.5445 86.4885 13.4335 86.6807 13.2876C86.8729 13.1385 87.032 12.9579 87.158 12.7457C87.2872 12.5336 87.3767 12.2917 87.4264 12.0199L89.604 12.0298C89.5477 12.4972 89.4068 12.9479 89.1814 13.3821C88.9593 13.813 88.6594 14.1991 88.2816 14.5405C87.907 14.8786 87.4596 15.147 86.9392 15.3459C86.4222 15.5414 85.8372 15.6392 85.1843 15.6392C84.2761 15.6392 83.4641 15.4337 82.7482 15.0227C82.0356 14.6117 81.4721 14.0168 81.0578 13.2379C80.6468 12.459 80.4414 11.5161 80.4414 10.4091C80.4414 9.29877 80.6502 8.35417 81.0678 7.57528C81.4854 6.7964 82.0522 6.20312 82.7681 5.79545C83.484 5.38447 84.2894 5.17898 85.1843 5.17898C85.7742 5.17898 86.3211 5.26184 86.8249 5.42756C87.332 5.59328 87.7811 5.83523 88.1722 6.15341C88.5633 6.46828 88.8815 6.8544 89.1267 7.31179C89.3753 7.76918 89.5344 8.29285 89.604 8.88281ZM91.7077 15.5V5.31818H93.8604V13.7251H98.2254V15.5H91.7077ZM100.211 15.5V5.31818H107.072V7.09304H102.364V9.51918H106.719V11.294H102.364V13.7251H107.092V15.5H100.211Z" fill="#A958FA"/>
<path d="M131.625 5.5V13.625C131.625 13.7908 131.559 13.9497 131.442 14.0669C131.325 14.1842 131.166 14.25 131 14.25C130.834 14.25 130.675 14.1842 130.558 14.0669C130.441 13.9497 130.375 13.7908 130.375 13.625V7.00859L121.442 15.9422C121.325 16.0595 121.166 16.1253 121 16.1253C120.834 16.1253 120.675 16.0595 120.558 15.9422C120.441 15.8249 120.375 15.6659 120.375 15.5C120.375 15.3341 120.441 15.1751 120.558 15.0578L129.491 6.125H122.875C122.709 6.125 122.55 6.05915 122.433 5.94194C122.316 5.82473 122.25 5.66576 122.25 5.5C122.25 5.33424 122.316 5.17527 122.433 5.05806C122.55 4.94085 122.709 4.875 122.875 4.875H131C131.166 4.875 131.325 4.94085 131.442 5.05806C131.559 5.17527 131.625 5.33424 131.625 5.5Z" fill="#A958FA"/>
</svg>
