<svg width="217" height="32" viewBox="0 0 217 32" fill="none" xmlns="http://www.w3.org/2000/svg">
<path d="M13.6477 8.42045C13.5568 7.50379 13.1667 6.79167 12.4773 6.28409C11.7879 5.77651 10.8523 5.52273 9.67045 5.52273C8.86742 5.52273 8.18939 5.63636 7.63636 5.86364C7.08333 6.08333 6.65909 6.39015 6.36364 6.78409C6.07576 7.17803 5.93182 7.625 5.93182 8.125C5.91667 8.54167 6.00379 8.9053 6.19318 9.21591C6.39015 9.52652 6.65909 9.79545 7 10.0227C7.34091 10.2424 7.73485 10.4356 8.18182 10.6023C8.62879 10.7614 9.10606 10.8977 9.61364 11.0114L11.7045 11.5114C12.7197 11.7386 13.6515 12.0417 14.5 12.4205C15.3485 12.7992 16.0833 13.2652 16.7045 13.8182C17.3258 14.3712 17.8068 15.0227 18.1477 15.7727C18.4962 16.5227 18.6742 17.3826 18.6818 18.3523C18.6742 19.7765 18.3106 21.0114 17.5909 22.0568C16.8788 23.0947 15.8485 23.9015 14.5 24.4773C13.1591 25.0455 11.5417 25.3295 9.64773 25.3295C7.76894 25.3295 6.13258 25.0417 4.73864 24.4659C3.35227 23.8902 2.26894 23.0379 1.48864 21.9091C0.715909 20.7727 0.310606 19.3674 0.272727 17.6932H5.03409C5.08712 18.4735 5.31061 19.125 5.70455 19.6477C6.10606 20.1629 6.64015 20.553 7.30682 20.8182C7.98106 21.0758 8.74242 21.2045 9.59091 21.2045C10.4242 21.2045 11.1477 21.0833 11.7614 20.8409C12.3826 20.5985 12.8636 20.2614 13.2045 19.8295C13.5455 19.3977 13.7159 18.9015 13.7159 18.3409C13.7159 17.8182 13.5606 17.3788 13.25 17.0227C12.947 16.6667 12.5 16.3636 11.9091 16.1136C11.3258 15.8636 10.6098 15.6364 9.76136 15.4318L7.22727 14.7955C5.26515 14.3182 3.71591 13.572 2.57955 12.5568C1.44318 11.5417 0.878788 10.1742 0.886364 8.45454C0.878788 7.04545 1.25379 5.81439 2.01136 4.76136C2.77652 3.70833 3.82576 2.88636 5.15909 2.29545C6.49242 1.70454 8.00758 1.40909 9.70455 1.40909C11.4318 1.40909 12.9394 1.70454 14.2273 2.29545C15.5227 2.88636 16.5303 3.70833 17.25 4.76136C17.9697 5.81439 18.3409 7.03409 18.3636 8.42045H13.6477ZM21.2606 31.5455V7.54545H26.0333V10.4773H26.2492C26.4613 10.0076 26.7681 9.5303 27.1697 9.04545C27.5788 8.55303 28.1091 8.14394 28.7606 7.81818C29.4197 7.48485 30.2378 7.31818 31.2151 7.31818C32.4878 7.31818 33.6621 7.65152 34.7378 8.31818C35.8136 8.97727 36.6734 9.97348 37.3174 11.3068C37.9613 12.6326 38.2833 14.2955 38.2833 16.2955C38.2833 18.2424 37.9689 19.8864 37.3401 21.2273C36.7189 22.5606 35.8704 23.572 34.7947 24.2614C33.7265 24.9432 32.5295 25.2841 31.2038 25.2841C30.2644 25.2841 29.4651 25.1288 28.806 24.8182C28.1545 24.5076 27.6204 24.1174 27.2038 23.6477C26.7871 23.1705 26.4689 22.6894 26.2492 22.2045H26.1015V31.5455H21.2606ZM25.9992 16.2727C25.9992 17.3106 26.1431 18.2159 26.431 18.9886C26.7189 19.7614 27.1356 20.3636 27.681 20.7955C28.2265 21.2197 28.8894 21.4318 29.6697 21.4318C30.4575 21.4318 31.1242 21.2159 31.6697 20.7841C32.2151 20.3447 32.628 19.7386 32.9083 18.9659C33.1962 18.1856 33.3401 17.2879 33.3401 16.2727C33.3401 15.2652 33.2 14.3788 32.9197 13.6136C32.6394 12.8485 32.2265 12.25 31.681 11.8182C31.1356 11.3864 30.4651 11.1705 29.6697 11.1705C28.8818 11.1705 28.2151 11.3788 27.6697 11.7955C27.1318 12.2121 26.7189 12.803 26.431 13.5682C26.1431 14.3333 25.9992 15.2348 25.9992 16.2727ZM40.8706 25V7.54545H45.5638V10.5909H45.7456C46.0638 9.50758 46.5978 8.68939 47.3478 8.13636C48.0978 7.57576 48.9615 7.29545 49.9388 7.29545C50.1812 7.29545 50.4425 7.31061 50.7228 7.34091C51.0031 7.37121 51.2494 7.41288 51.4615 7.46591V11.7614C51.2342 11.6932 50.9198 11.6326 50.5183 11.5795C50.1168 11.5265 49.7494 11.5 49.416 11.5C48.7039 11.5 48.0675 11.6553 47.5069 11.9659C46.9539 12.2689 46.5145 12.6932 46.1888 13.2386C45.8706 13.7841 45.7115 14.4129 45.7115 15.125V25H40.8706ZM53.3243 25V7.54545H58.1652V25H53.3243ZM55.7561 5.29545C55.0364 5.29545 54.419 5.05682 53.9039 4.57954C53.3963 4.0947 53.1425 3.51515 53.1425 2.84091C53.1425 2.17424 53.3963 1.60227 53.9039 1.125C54.419 0.640151 55.0364 0.397726 55.7561 0.397726C56.4758 0.397726 57.0895 0.640151 57.597 1.125C58.1122 1.60227 58.3698 2.17424 58.3698 2.84091C58.3698 3.51515 58.1122 4.0947 57.597 4.57954C57.0895 5.05682 56.4758 5.29545 55.7561 5.29545ZM66.244 14.9091V25H61.4031V7.54545H66.0167V10.625H66.2212C66.6076 9.60985 67.2553 8.80682 68.1644 8.21591C69.0735 7.61742 70.1758 7.31818 71.4712 7.31818C72.6834 7.31818 73.7402 7.58333 74.6417 8.11364C75.5432 8.64394 76.244 9.40151 76.744 10.3864C77.244 11.3636 77.494 12.5303 77.494 13.8864V25H72.6531V14.75C72.6606 13.6818 72.3879 12.8485 71.8349 12.25C71.2819 11.6439 70.5205 11.3409 69.5508 11.3409C68.8993 11.3409 68.3235 11.4811 67.8235 11.7614C67.3311 12.0417 66.9447 12.4508 66.6644 12.9886C66.3917 13.5189 66.2516 14.1591 66.244 14.9091ZM88.533 31.9091C86.9648 31.9091 85.6201 31.6932 84.4989 31.2614C83.3852 30.8371 82.4989 30.2576 81.8398 29.5227C81.1807 28.7879 80.7527 27.9621 80.5557 27.0455L85.033 26.4432C85.1693 26.7917 85.3852 27.1174 85.6807 27.4205C85.9761 27.7235 86.3663 27.9659 86.8511 28.1477C87.3436 28.3371 87.942 28.4318 88.6466 28.4318C89.6996 28.4318 90.567 28.1742 91.2489 27.6591C91.9383 27.1515 92.283 26.2992 92.283 25.1023V21.9091H92.0784C91.8663 22.3939 91.5481 22.8523 91.1239 23.2841C90.6996 23.7159 90.1542 24.0682 89.4875 24.3409C88.8208 24.6136 88.0254 24.75 87.1011 24.75C85.7905 24.75 84.5974 24.447 83.5216 23.8409C82.4534 23.2273 81.6011 22.2917 80.9648 21.0341C80.336 19.7689 80.0216 18.1705 80.0216 16.2386C80.0216 14.2614 80.3436 12.6098 80.9875 11.2841C81.6314 9.95833 82.4875 8.96591 83.5557 8.30682C84.6314 7.64773 85.8095 7.31818 87.0898 7.31818C88.067 7.31818 88.8852 7.48485 89.5443 7.81818C90.2034 8.14394 90.7337 8.55303 91.1352 9.04545C91.5443 9.5303 91.8587 10.0076 92.0784 10.4773H92.2602V7.54545H97.067V25.1705C97.067 26.6553 96.7034 27.8977 95.9761 28.8977C95.2489 29.8977 94.2413 30.6477 92.9534 31.1477C91.6731 31.6553 90.1996 31.9091 88.533 31.9091ZM88.6352 21.1136C89.4155 21.1136 90.0746 20.9205 90.6125 20.5341C91.158 20.1402 91.5746 19.5795 91.8625 18.8523C92.158 18.1174 92.3057 17.2386 92.3057 16.2159C92.3057 15.1932 92.1617 14.3068 91.8739 13.5568C91.586 12.7992 91.1693 12.2121 90.6239 11.7955C90.0784 11.3788 89.4155 11.1705 88.6352 11.1705C87.8398 11.1705 87.1693 11.3864 86.6239 11.8182C86.0784 12.2424 85.6655 12.8333 85.3852 13.5909C85.1049 14.3485 84.9648 15.2235 84.9648 16.2159C84.9648 17.2235 85.1049 18.0947 85.3852 18.8295C85.6731 19.5568 86.086 20.1212 86.6239 20.5227C87.1693 20.9167 87.8398 21.1136 88.6352 21.1136ZM119.761 8.42045C119.671 7.50379 119.28 6.79167 118.591 6.28409C117.902 5.77651 116.966 5.52273 115.784 5.52273C114.981 5.52273 114.303 5.63636 113.75 5.86364C113.197 6.08333 112.773 6.39015 112.477 6.78409C112.19 7.17803 112.046 7.625 112.046 8.125C112.03 8.54167 112.118 8.9053 112.307 9.21591C112.504 9.52652 112.773 9.79545 113.114 10.0227C113.455 10.2424 113.849 10.4356 114.296 10.6023C114.743 10.7614 115.22 10.8977 115.727 11.0114L117.818 11.5114C118.833 11.7386 119.765 12.0417 120.614 12.4205C121.462 12.7992 122.197 13.2652 122.818 13.8182C123.44 14.3712 123.921 15.0227 124.261 15.7727C124.61 16.5227 124.788 17.3826 124.796 18.3523C124.788 19.7765 124.424 21.0114 123.705 22.0568C122.993 23.0947 121.962 23.9015 120.614 24.4773C119.273 25.0455 117.655 25.3295 115.761 25.3295C113.883 25.3295 112.246 25.0417 110.852 24.4659C109.466 23.8902 108.383 23.0379 107.602 21.9091C106.83 20.7727 106.424 19.3674 106.386 17.6932H111.148C111.201 18.4735 111.424 19.125 111.818 19.6477C112.22 20.1629 112.754 20.553 113.421 20.8182C114.095 21.0758 114.856 21.2045 115.705 21.2045C116.538 21.2045 117.261 21.0833 117.875 20.8409C118.496 20.5985 118.977 20.2614 119.318 19.8295C119.659 19.3977 119.83 18.9015 119.83 18.3409C119.83 17.8182 119.674 17.3788 119.364 17.0227C119.061 16.6667 118.614 16.3636 118.023 16.1136C117.44 15.8636 116.724 15.6364 115.875 15.4318L113.341 14.7955C111.379 14.3182 109.83 13.572 108.693 12.5568C107.557 11.5417 106.993 10.1742 107 8.45454C106.993 7.04545 107.368 5.81439 108.125 4.76136C108.89 3.70833 109.94 2.88636 111.273 2.29545C112.606 1.70454 114.121 1.40909 115.818 1.40909C117.546 1.40909 119.053 1.70454 120.341 2.29545C121.636 2.88636 122.644 3.70833 123.364 4.76136C124.083 5.81439 124.455 7.03409 124.477 8.42045H119.761ZM135.329 25.3409C133.533 25.3409 131.988 24.9773 130.692 24.25C129.405 23.5152 128.412 22.4773 127.715 21.1364C127.018 19.7879 126.67 18.1932 126.67 16.3523C126.67 14.5568 127.018 12.9811 127.715 11.625C128.412 10.2689 129.393 9.21212 130.658 8.45454C131.931 7.69697 133.424 7.31818 135.136 7.31818C136.287 7.31818 137.359 7.50379 138.352 7.875C139.352 8.23864 140.223 8.78788 140.965 9.52273C141.715 10.2576 142.299 11.1818 142.715 12.2955C143.132 13.4015 143.34 14.697 143.34 16.1818V17.5114H128.602V14.5114H138.783C138.783 13.8144 138.632 13.197 138.329 12.6591C138.026 12.1212 137.605 11.7008 137.067 11.3977C136.537 11.0871 135.92 10.9318 135.215 10.9318C134.48 10.9318 133.829 11.1023 133.261 11.4432C132.7 11.7765 132.261 12.2273 131.942 12.7955C131.624 13.3561 131.461 13.9811 131.454 14.6705V17.5227C131.454 18.3864 131.613 19.1326 131.931 19.7614C132.257 20.3902 132.715 20.875 133.306 21.2159C133.897 21.5568 134.598 21.7273 135.408 21.7273C135.946 21.7273 136.439 21.6515 136.886 21.5C137.333 21.3485 137.715 21.1212 138.033 20.8182C138.352 20.5152 138.594 20.1439 138.761 19.7045L143.238 20C143.011 21.0758 142.545 22.0152 141.84 22.8182C141.143 23.6136 140.242 24.2348 139.136 24.6818C138.037 25.1212 136.768 25.3409 135.329 25.3409ZM150.837 25.3295C149.723 25.3295 148.731 25.1364 147.859 24.75C146.988 24.3561 146.299 23.7765 145.791 23.0114C145.291 22.2386 145.041 21.2765 145.041 20.125C145.041 19.1553 145.219 18.3409 145.575 17.6818C145.931 17.0227 146.416 16.4924 147.03 16.0909C147.643 15.6894 148.34 15.3864 149.121 15.1818C149.909 14.9773 150.734 14.8333 151.598 14.75C152.613 14.6439 153.431 14.5455 154.053 14.4545C154.674 14.3561 155.124 14.2121 155.405 14.0227C155.685 13.8333 155.825 13.553 155.825 13.1818V13.1136C155.825 12.3939 155.598 11.8371 155.143 11.4432C154.696 11.0492 154.06 10.8523 153.234 10.8523C152.363 10.8523 151.67 11.0455 151.155 11.4318C150.64 11.8106 150.299 12.2879 150.132 12.8636L145.655 12.5C145.882 11.4394 146.329 10.5227 146.996 9.75C147.662 8.9697 148.522 8.37121 149.575 7.95454C150.636 7.5303 151.863 7.31818 153.257 7.31818C154.227 7.31818 155.155 7.43182 156.041 7.65909C156.935 7.88636 157.727 8.23864 158.416 8.71591C159.113 9.19318 159.662 9.80682 160.064 10.5568C160.465 11.2992 160.666 12.1894 160.666 13.2273V25H156.075V22.5795H155.939C155.659 23.125 155.284 23.6061 154.814 24.0227C154.344 24.4318 153.78 24.7538 153.121 24.9886C152.462 25.2159 151.7 25.3295 150.837 25.3295ZM152.223 21.9886C152.935 21.9886 153.564 21.8485 154.109 21.5682C154.655 21.2803 155.083 20.8939 155.393 20.4091C155.704 19.9242 155.859 19.375 155.859 18.7614V16.9091C155.708 17.0076 155.499 17.0985 155.234 17.1818C154.977 17.2576 154.685 17.3295 154.359 17.3977C154.034 17.4583 153.708 17.5152 153.382 17.5682C153.056 17.6136 152.761 17.6553 152.496 17.6932C151.928 17.7765 151.431 17.9091 151.007 18.0909C150.583 18.2727 150.253 18.5189 150.018 18.8295C149.784 19.1326 149.666 19.5114 149.666 19.9659C149.666 20.625 149.905 21.1288 150.382 21.4773C150.867 21.8182 151.481 21.9886 152.223 21.9886ZM178.305 12.5227L173.873 12.7955C173.797 12.4167 173.634 12.0758 173.384 11.7727C173.134 11.4621 172.805 11.2159 172.395 11.0341C171.994 10.8447 171.513 10.75 170.952 10.75C170.202 10.75 169.57 10.9091 169.055 11.2273C168.539 11.5379 168.282 11.9545 168.282 12.4773C168.282 12.8939 168.448 13.2462 168.782 13.5341C169.115 13.822 169.687 14.053 170.498 14.2273L173.657 14.8636C175.354 15.2121 176.619 15.7727 177.452 16.5455C178.286 17.3182 178.702 18.3333 178.702 19.5909C178.702 20.7348 178.365 21.7386 177.691 22.6023C177.024 23.4659 176.108 24.1402 174.941 24.625C173.782 25.1023 172.445 25.3409 170.93 25.3409C168.619 25.3409 166.778 24.8598 165.407 23.8977C164.043 22.928 163.244 21.6098 163.009 19.9432L167.77 19.6932C167.914 20.3977 168.263 20.9356 168.816 21.3068C169.369 21.6705 170.077 21.8523 170.941 21.8523C171.789 21.8523 172.471 21.6894 172.986 21.3636C173.509 21.0303 173.774 20.6023 173.782 20.0795C173.774 19.6402 173.589 19.2803 173.225 19C172.861 18.7121 172.301 18.4924 171.543 18.3409L168.52 17.7386C166.816 17.3977 165.547 16.8068 164.714 15.9659C163.888 15.125 163.475 14.053 163.475 12.75C163.475 11.6288 163.778 10.6629 164.384 9.85227C164.998 9.04167 165.858 8.41667 166.964 7.97727C168.077 7.53788 169.38 7.31818 170.873 7.31818C173.077 7.31818 174.812 7.78409 176.077 8.71591C177.35 9.64773 178.092 10.9167 178.305 12.5227ZM188.997 25.3409C187.232 25.3409 185.705 24.9659 184.417 24.2159C183.137 23.4583 182.148 22.4053 181.451 21.0568C180.755 19.7008 180.406 18.1288 180.406 16.3409C180.406 14.5379 180.755 12.9621 181.451 11.6136C182.148 10.2576 183.137 9.20454 184.417 8.45454C185.705 7.69697 187.232 7.31818 188.997 7.31818C190.762 7.31818 192.285 7.69697 193.565 8.45454C194.853 9.20454 195.845 10.2576 196.542 11.6136C197.239 12.9621 197.588 14.5379 197.588 16.3409C197.588 18.1288 197.239 19.7008 196.542 21.0568C195.845 22.4053 194.853 23.4583 193.565 24.2159C192.285 24.9659 190.762 25.3409 188.997 25.3409ZM189.02 21.5909C189.823 21.5909 190.493 21.3636 191.031 20.9091C191.569 20.447 191.974 19.8182 192.247 19.0227C192.527 18.2273 192.667 17.322 192.667 16.3068C192.667 15.2917 192.527 14.3864 192.247 13.5909C191.974 12.7955 191.569 12.1667 191.031 11.7045C190.493 11.2424 189.823 11.0114 189.02 11.0114C188.209 11.0114 187.527 11.2424 186.974 11.7045C186.429 12.1667 186.016 12.7955 185.736 13.5909C185.463 14.3864 185.326 15.2917 185.326 16.3068C185.326 17.322 185.463 18.2273 185.736 19.0227C186.016 19.8182 186.429 20.447 186.974 20.9091C187.527 21.3636 188.209 21.5909 189.02 21.5909ZM204.936 14.9091V25H200.096V7.54545H204.709V10.625H204.914C205.3 9.60985 205.948 8.80682 206.857 8.21591C207.766 7.61742 208.868 7.31818 210.164 7.31818C211.376 7.31818 212.433 7.58333 213.334 8.11364C214.236 8.64394 214.936 9.40151 215.436 10.3864C215.936 11.3636 216.186 12.5303 216.186 13.8864V25H211.346V14.75C211.353 13.6818 211.08 12.8485 210.527 12.25C209.974 11.6439 209.213 11.3409 208.243 11.3409C207.592 11.3409 207.016 11.4811 206.516 11.7614C206.024 12.0417 205.637 12.4508 205.357 12.9886C205.084 13.5189 204.944 14.1591 204.936 14.9091Z" fill="white"/>
</svg>
