<svg width="12" height="13" viewBox="0 0 12 13" fill="none" xmlns="http://www.w3.org/2000/svg">
<path d="M11.625 1.5V9.625C11.625 9.79076 11.5591 9.94973 11.4419 10.0669C11.3247 10.1842 11.1657 10.25 11 10.25C10.8342 10.25 10.6753 10.1842 10.558 10.0669C10.4408 9.94973 10.375 9.79076 10.375 9.625V3.00859L1.44217 11.9422C1.32489 12.0595 1.16583 12.1253 0.999981 12.1253C0.834129 12.1253 0.675069 12.0595 0.557794 11.9422C0.440518 11.8249 0.374634 11.6659 0.374634 11.5C0.374634 11.3341 0.440518 11.1751 0.557794 11.0578L9.49139 2.125H2.87498C2.70922 2.125 2.55025 2.05915 2.43304 1.94194C2.31583 1.82473 2.24998 1.66576 2.24998 1.5C2.24998 1.33424 2.31583 1.17527 2.43304 1.05806C2.55025 0.940848 2.70922 0.875 2.87498 0.875H11C11.1657 0.875 11.3247 0.940848 11.4419 1.05806C11.5591 1.17527 11.625 1.33424 11.625 1.5Z" fill="#A958FA"/>
</svg>
